<svg width="32" height="32" viewBox="0 0 32 32" fill="none" xmlns="http://www.w3.org/2000/svg">
<rect x="0.5" y="0.5" width="31" height="31" rx="15.5" stroke="#CCCCCC"/>
<path d="M12.9597 10.2025V12.3955H12.7748V9.3337H24.915V9.70251H13.4597H12.9597V10.2025ZM9.44433 9.20007L9.44433 9.20007L9.44591 9.19851C9.53661 9.10901 9.63181 9.07031 9.75683 9.07031C9.89419 9.07031 10.002 9.11577 10.082 9.19409C10.1649 9.27606 10.205 9.36685 10.205 9.50068C10.205 9.59096 10.1758 9.6773 10.0724 9.77724L10.0724 9.77724L10.0708 9.77875C9.97015 9.87684 9.87249 9.91322 9.75764 9.91322C9.64326 9.91322 9.54834 9.87727 9.45081 9.78101C9.34785 9.67939 9.31836 9.59221 9.31836 9.50068C9.31836 9.37656 9.35639 9.28607 9.44433 9.20007Z" fill="white" fill-opacity="0.5" stroke="#CCCCCC"/>
<path d="M9.09958 14.1955C9.28678 14.3802 9.50641 14.4718 9.75764 14.4718C10.0089 14.4718 10.2301 14.3802 10.4198 14.1955C10.6102 14.0115 10.705 13.7992 10.705 13.5593C10.705 13.2959 10.6143 13.0755 10.4327 12.8963C10.2512 12.7181 10.0137 12.6289 9.75683 12.6289C9.49993 12.6289 9.27868 12.7197 9.09471 12.9012L9.09958 14.1955ZM9.09958 14.1955C8.91237 14.0115 8.81917 13.8 8.81917 13.5593L9.09958 14.1955ZM12.9597 14.2611V16.4541H12.7748V13.3923H24.915V13.7611H13.4597H12.9597V14.2611ZM9.31917 13.5287C9.32507 13.4206 9.36347 13.3381 9.44513 13.2579L9.44513 13.2579L9.44591 13.2571C9.53661 13.1676 9.63181 13.1289 9.75683 13.1289C9.89419 13.1289 10.002 13.1744 10.082 13.2527C10.1649 13.3346 10.205 13.4254 10.205 13.5593C10.205 13.6496 10.1758 13.7359 10.0724 13.8358L10.0724 13.8358L10.0708 13.8373C9.97015 13.9354 9.87249 13.9718 9.75764 13.9718C9.64326 13.9718 9.54834 13.9359 9.45081 13.8396L9.45003 13.8388C9.34898 13.7395 9.31917 13.6531 9.31917 13.5593V13.5287Z" fill="white" fill-opacity="0.5" stroke="#CCCCCC"/>
<path d="M9.09958 18.2619C9.28678 18.4466 9.50641 18.5382 9.75764 18.5382C10.0089 18.5382 10.2301 18.4466 10.4198 18.2619C10.6102 18.0779 10.705 17.8656 10.705 17.6257C10.705 17.3623 10.6143 17.1419 10.4327 16.9628C10.2512 16.7845 10.0137 16.6953 9.75683 16.6953C9.49993 16.6953 9.27868 16.7861 9.09471 16.9676L9.09958 18.2619ZM9.09958 18.2619C8.91237 18.0779 8.81917 17.8664 8.81917 17.6257L9.09958 18.2619ZM12.9597 18.3275V25.2056H12.7748V17.4587H24.915V17.8275H13.4597H12.9597V18.3275ZM9.31917 17.5951C9.32507 17.487 9.36347 17.4045 9.44513 17.3243L9.44513 17.3243L9.44591 17.3235C9.53661 17.234 9.63181 17.1953 9.75683 17.1953C9.89419 17.1953 10.002 17.2408 10.082 17.3191C10.1649 17.4011 10.205 17.4918 10.205 17.6257C10.205 17.716 10.1758 17.8023 10.0724 17.9022L10.0724 17.9022L10.0708 17.9037C9.97015 18.0018 9.87249 18.0382 9.75764 18.0382C9.64326 18.0382 9.54834 18.0023 9.45081 17.906L9.45003 17.9052C9.34898 17.8059 9.31917 17.7195 9.31917 17.6257V17.5951Z" fill="white" fill-opacity="0.5" stroke="#CCCCCC"/>
</svg>
