<svg width="100" height="100" viewBox="0 0 100 100" fill="none" xmlns="http://www.w3.org/2000/svg">
<rect width="100" height="100" rx="50" fill="#F8B3A5"/>
<path d="M76.718 31.7841V35.8184H41.4816V43.7557H37.9895V31.7841H76.718ZM27.8022 33.7499C27.8022 32.9903 28.0722 32.343 28.6168 31.8104C29.159 31.2753 29.811 31.0078 30.5682 31.0078C31.3254 31.0078 32.0253 31.2706 32.5603 31.796C33.0953 32.3239 33.3629 32.9736 33.3629 33.7499C33.3629 34.4569 33.0834 35.0827 32.5221 35.6249C31.9632 36.1695 31.3111 36.4394 30.5706 36.4394C29.8302 36.4394 29.1828 36.1695 28.6311 35.6249C28.0793 35.0803 27.8022 34.4569 27.8022 33.7499Z" fill="white" fill-opacity="0.75"/>
<path d="M76.718 43.7607V47.795H41.4816V55.7322H37.9895V43.7607H76.718ZM27.8022 45.7265C27.8022 44.9669 28.0722 44.322 28.6168 43.7869C29.159 43.2519 29.811 42.9844 30.5682 42.9844C31.3254 42.9844 32.0253 43.2471 32.5603 43.7726C33.0953 44.3005 33.3629 44.9502 33.3629 45.7265C33.3629 46.4335 33.0834 47.0593 32.5221 47.6015C31.9632 48.1461 31.3111 48.416 30.5706 48.416C29.8302 48.416 29.1828 48.1461 28.6311 47.6015C28.0793 47.0593 27.8046 46.4359 27.8046 45.7265H27.8022Z" fill="white" fill-opacity="0.75"/>
<path d="M76.718 55.7216V59.7559H41.4816V81.5015H37.9895V55.7216H76.718ZM27.8022 57.6874C27.8022 56.9278 28.0722 56.2829 28.6168 55.7479C29.159 55.2128 29.811 54.9453 30.5682 54.9453C31.3254 54.9453 32.0253 55.2081 32.5603 55.7335C33.0953 56.2614 33.3629 56.9111 33.3629 57.6874C33.3629 58.3944 33.0834 59.0202 32.5221 59.5624C31.9632 60.107 31.3111 60.3769 30.5706 60.3769C29.8302 60.3769 29.1828 60.107 28.6311 59.5624C28.0793 59.0202 27.8046 58.3968 27.8046 57.6874H27.8022Z" fill="white" fill-opacity="0.75"/>
</svg>
