<svg width="100" height="100" viewBox="0 0 100 100" fill="none" xmlns="http://www.w3.org/2000/svg">
<rect width="100" height="100" rx="50" fill="#A5DAC5"/>
<path d="M31.8085 77.4096V53.3013H35.7837V77.4096H31.8085ZM33.8298 49.2832C33.055 49.2832 32.3868 49.0373 31.8254 48.5455C31.2751 48.0537 31 47.4625 31 46.7719C31 46.0813 31.2751 45.4901 31.8254 44.9983C32.3868 44.5065 33.055 44.2606 33.8298 44.2606C34.6046 44.2606 35.2671 44.5065 35.8174 44.9983C36.3788 45.4901 36.6596 46.0813 36.6596 46.7719C36.6596 47.4625 36.3788 48.0537 35.8174 48.5455C35.2671 49.0373 34.6046 49.2832 33.8298 49.2832Z" fill="white" fill-opacity="0.75"/>
<path fill-rule="evenodd" clip-rule="evenodd" d="M30.8085 78.4096V52.3013H36.7837V78.4096H30.8085ZM31.159 49.2911C30.4129 48.6243 30 47.7685 30 46.7719C30 45.7753 30.4129 44.9196 31.159 44.2527L31.1664 44.2461C31.9177 43.588 32.8227 43.2606 33.8298 43.2606C34.8353 43.2606 35.7374 43.5873 36.48 44.2494C37.2362 44.9133 37.6596 45.7695 37.6596 46.7719C37.6596 47.7743 37.2362 48.6306 36.48 49.2945C35.7374 49.9566 34.8353 50.2832 33.8298 50.2832C32.8227 50.2832 31.9177 49.9558 31.1665 49.2978L31.159 49.2911ZM35.8174 48.5455C36.3788 48.0537 36.6596 47.4625 36.6596 46.7719C36.6596 46.0813 36.3788 45.4901 35.8174 44.9983C35.2671 44.5065 34.6046 44.2606 33.8298 44.2606C33.055 44.2606 32.3868 44.5065 31.8254 44.9983C31.2751 45.4901 31 46.0813 31 46.7719C31 47.4625 31.2751 48.0537 31.8254 48.5455C32.3868 49.0373 33.055 49.2832 33.8298 49.2832C34.6046 49.2832 35.2671 49.0373 35.8174 48.5455ZM31.8085 77.4096H35.7837V53.3013H31.8085V77.4096Z" fill="white" fill-opacity="0.75"/>
<path d="M64.1489 55.0239V30.9156H68.1241V55.0239H64.1489ZM66.1702 26.8976C65.3954 26.8976 64.7272 26.6517 64.1658 26.1599C63.6155 25.6681 63.3404 25.0769 63.3404 24.3863C63.3404 23.6957 63.6155 23.1045 64.1658 22.6127C64.7272 22.1209 65.3954 21.875 66.1702 21.875C66.945 21.875 67.6076 22.1209 68.1578 22.6127C68.7193 23.1045 69 23.6957 69 24.3863C69 25.0769 68.7193 25.6681 68.1578 26.1599C67.6076 26.6517 66.945 26.8976 66.1702 26.8976Z" fill="white" fill-opacity="0.75"/>
<path fill-rule="evenodd" clip-rule="evenodd" d="M63.1489 56.0239V29.9156H69.1241V56.0239H63.1489ZM63.4994 26.9055C62.7533 26.2386 62.3404 25.3829 62.3404 24.3863C62.3404 23.3897 62.7533 22.5339 63.4994 21.8671L63.5069 21.8604C64.2581 21.2024 65.1631 20.875 66.1702 20.875C67.1758 20.875 68.0778 21.2016 68.8204 21.8637C69.5766 22.5276 70 23.3839 70 24.3863C70 25.3887 69.5766 26.2449 68.8205 26.9088C68.0779 27.5709 67.1758 27.8976 66.1702 27.8976C65.1631 27.8976 64.2582 27.5702 63.5069 26.9121L63.4994 26.9055ZM68.1578 26.1599C68.7193 25.6681 69 25.0769 69 24.3863C69 23.6957 68.7193 23.1045 68.1578 22.6127C67.6076 22.1209 66.945 21.875 66.1702 21.875C65.3954 21.875 64.7272 22.1209 64.1658 22.6127C63.6155 23.1045 63.3404 23.6957 63.3404 24.3863C63.3404 25.0769 63.6155 25.6681 64.1658 26.1599C64.7272 26.6517 65.3954 26.8976 66.1702 26.8976C66.945 26.8976 67.6076 26.6517 68.1578 26.1599ZM64.1489 55.0239H68.1241V30.9156H64.1489V55.0239Z" fill="white" fill-opacity="0.75"/>
<path fill-rule="evenodd" clip-rule="evenodd" d="M65.5245 63.7281C64.8642 64.9465 64.1138 66.099 63.2843 67.1791L61.6981 65.9609C62.4638 64.9638 63.1565 63.8999 63.7661 62.7752L65.5245 63.7281ZM60.5287 70.2348C59.5291 71.1817 58.4585 72.0463 57.3288 72.822L56.1967 71.1732C57.2408 70.4564 58.2299 69.6574 59.1534 68.7828L60.5287 70.2348ZM53.7652 74.8794C52.5286 75.47 51.2445 75.9647 49.9247 76.357L49.3549 74.4399C50.574 74.0776 51.7605 73.6204 52.9034 73.0746L53.7652 74.8794ZM45.9005 77.2156C44.5504 77.3939 43.1772 77.4675 41.7918 77.4302L41.8458 75.4309C43.1246 75.4654 44.3923 75.3974 45.6387 75.2328L45.9005 77.2156Z" fill="white" fill-opacity="0.75"/>
<path fill-rule="evenodd" clip-rule="evenodd" d="M34.5388 37.0697C35.0904 35.7983 35.7375 34.5849 36.4697 33.4366L38.1561 34.5119C37.4801 35.572 36.8828 36.6921 36.3736 37.8657L34.5388 37.0697ZM38.9485 30.1523C39.8618 29.122 40.8529 28.1673 41.9108 27.2961L43.1822 28.8399C42.2046 29.6451 41.2888 30.5272 40.4452 31.479L38.9485 30.1523ZM45.2815 24.9359C46.4619 24.2399 47.698 23.635 48.9786 23.1292L49.7133 24.9893C48.5304 25.4566 47.3883 26.0154 46.2973 26.6587L45.2815 24.9359ZM52.9126 21.9232C54.242 21.6279 55.6036 21.4349 56.987 21.3513L57.1075 23.3477C55.8305 23.4248 54.5736 23.603 53.3463 23.8756L52.9126 21.9232Z" fill="white" fill-opacity="0.75"/>
</svg>
