<svg width="85" height="85" viewBox="0 0 85 85" fill="none" xmlns="http://www.w3.org/2000/svg">
<circle cx="17.7083" cy="67.2969" r="12.5217" transform="rotate(-45 17.7083 67.2969)" fill="#EAA698"/>
<circle cx="17.7083" cy="17.7109" r="12.5217" transform="rotate(-45 17.7083 17.7109)" fill="#A6AED7"/>
<circle cx="67.2913" cy="17.7109" r="12.5217" transform="rotate(-45 67.2913 17.7109)" fill="#EACC9A"/>
<circle cx="67.2913" cy="67.2969" r="12.5217" transform="rotate(-45 67.2913 67.2969)" fill="#9CD1BC"/>
<circle cx="42.9297" cy="42.9453" r="32.5" stroke="#F6F6F6" stroke-width="5"/>
<path d="M63.1109 43.0763C63.1109 52.608 60.7908 61.1889 57.092 67.3535C53.3813 73.538 48.3943 77.137 43.0745 77.137C37.7547 77.137 32.7677 73.538 29.057 67.3535C25.3582 61.1889 23.0381 52.608 23.0381 43.0763C23.0381 33.5447 25.3582 24.9638 29.057 18.7992C32.7677 12.6146 37.7547 9.01562 43.0745 9.01562C48.3943 9.01562 53.3813 12.6146 57.092 18.7992C60.7908 24.9638 63.1109 33.5447 63.1109 43.0763Z" stroke="#F6F6F6" stroke-width="2"/>
<path d="M51.0898 43.0763C51.0898 52.6992 50.0858 61.3768 48.4807 67.619C47.6762 70.7476 46.7348 73.208 45.729 74.8623C44.6873 76.5759 43.761 77.137 43.0742 77.137C42.3874 77.137 41.4612 76.5759 40.4194 74.8623C39.4136 73.208 38.4722 70.7476 37.6677 67.619C36.0626 61.3768 35.0586 52.6992 35.0586 43.0763C35.0586 33.4534 36.0626 24.7759 37.6677 18.5337C38.4722 15.4051 39.4136 12.9447 40.4194 11.2904C41.4612 9.57681 42.3874 9.01562 43.0742 9.01562C43.761 9.01562 44.6873 9.57681 45.729 11.2904C46.7348 12.9447 47.6762 15.4051 48.4807 18.5337C50.0858 24.7759 51.0898 33.4534 51.0898 43.0763Z" stroke="#F6F6F6" stroke-width="2"/>
<path d="M43.075 63.1119C33.5434 63.1119 24.9625 60.7918 18.7979 57.093C12.6133 53.3823 9.01432 48.3953 9.01432 43.0755C9.01432 37.7557 12.6133 32.7687 18.7979 29.058C24.9625 25.3592 33.5434 23.0391 43.075 23.0391C52.6067 23.0391 61.1876 25.3592 67.3522 29.058C73.5367 32.7687 77.1357 37.7557 77.1357 43.0755C77.1357 48.3953 73.5367 53.3823 67.3522 57.093C61.1876 60.7918 52.6067 63.1119 43.075 63.1119Z" stroke="#F6F6F6" stroke-width="2"/>
<path d="M43.075 51.0937C33.4521 51.0937 24.7746 50.0897 18.5324 48.4846C15.4038 47.6801 12.9434 46.7387 11.289 45.7329C9.57551 44.6912 9.01432 43.7649 9.01432 43.0781C9.01432 42.3913 9.57551 41.4651 11.289 40.4233C12.9434 39.4176 15.4038 38.4761 18.5324 37.6716C24.7746 36.0665 33.4521 35.0625 43.075 35.0625C52.6979 35.0625 61.3755 36.0665 67.6177 37.6716C70.7463 38.4761 73.2067 39.4176 74.861 40.4233C76.5746 41.4651 77.1357 42.3913 77.1357 43.0781C77.1357 43.7649 76.5746 44.6912 74.861 45.7329C73.2067 46.7387 70.7463 47.6801 67.6177 48.4846C61.3755 50.0897 52.6979 51.0937 43.075 51.0937Z" stroke="#F6F6F6" stroke-width="2"/>
</svg>
