<svg width="32" height="32" viewBox="0 0 32 32" fill="none" xmlns="http://www.w3.org/2000/svg">
<rect x="0.5" y="0.5" width="31" height="31" rx="15.5" stroke="#CCCCCC"/>
<path d="M21.1075 12.18H17.0381V12.0351H21.9299V23.0011H21.6075V12.68V12.18H21.1075ZM22.0625 8.81212L22.0625 8.81212L22.0645 8.81411C22.1475 8.89806 22.1833 8.98574 22.1833 9.1025C22.1833 9.23266 22.1405 9.33185 22.0694 9.40374L22.0684 9.40474C21.9931 9.48132 21.9101 9.51856 21.785 9.51856C21.7031 9.51856 21.6242 9.49269 21.5309 9.39571L21.5309 9.39571L21.529 9.39376C21.4365 9.29875 21.4034 9.20907 21.4034 9.1025C21.4034 8.99672 21.4359 8.90984 21.5271 8.81712L21.5271 8.8171C21.6205 8.72217 21.7007 8.69531 21.785 8.69531C21.8992 8.69531 21.9823 8.73006 22.0625 8.81212Z" fill="white" fill-opacity="0.5" stroke="#CCCCCC"/>
<mask id="path-3-inside-1_2785_37843" fill="white">
<path d="M10.0103 13.8242H11.3326V19.0149H13.9348V20.1597H10.0103V13.8242ZM11.3326 19.0149H13.9348V20.1597H10.0103M10.6542 23.4996C10.4057 23.4996 10.1937 23.4108 10.0191 23.2323C9.84362 23.0548 9.75586 22.8409 9.75586 22.5924C9.75586 22.3439 9.84165 22.1141 10.0142 21.9396C10.1868 21.7641 10.3998 21.6763 10.6542 21.6763C10.8859 21.6763 11.091 21.768 11.2685 21.9524C11.447 22.1358 11.5357 22.3488 11.5357 22.5924C11.5357 22.8359 11.447 23.047 11.2685 23.2284C11.091 23.4088 10.8859 23.4996 10.6542 23.4996Z"/>
</mask>
<path d="M10.0103 13.8242H11.3326V19.0149H13.9348V20.1597H10.0103V13.8242ZM11.3326 19.0149H13.9348V20.1597H10.0103M10.6542 23.4996C10.4057 23.4996 10.1937 23.4108 10.0191 23.2323C9.84362 23.0548 9.75586 22.8409 9.75586 22.5924C9.75586 22.3439 9.84165 22.1141 10.0142 21.9396C10.1868 21.7641 10.3998 21.6763 10.6542 21.6763C10.8859 21.6763 11.091 21.768 11.2685 21.9524C11.447 22.1358 11.5357 22.3488 11.5357 22.5924C11.5357 22.8359 11.447 23.047 11.2685 23.2284C11.091 23.4088 10.8859 23.4996 10.6542 23.4996Z" fill="white" fill-opacity="0.5"/>
<path d="M13.9348 19.0149H14.4348V18.5149H13.9348V19.0149ZM13.9348 20.1597V20.6597H14.4348V20.1597H13.9348ZM11.3326 19.5149H13.9348V18.5149H11.3326V19.5149ZM13.4348 19.0149V20.1597H14.4348V19.0149H13.4348ZM13.9348 19.6597H10.0103V20.6597H13.9348V19.6597ZM10.0103 13.8242V12.8242H9.01027V13.8242H10.0103ZM11.3326 13.8242H12.3326V12.8242H11.3326V13.8242ZM10.0191 23.2323L10.7341 22.5332L10.7302 22.5292L10.0191 23.2323ZM10.0142 21.9396L10.7253 22.6427L10.7273 22.6407L10.0142 21.9396ZM11.2685 21.9524L10.548 22.6459L10.5518 22.6498L11.2685 21.9524ZM11.2685 23.2284L10.5556 22.5271L10.5556 22.5272L11.2685 23.2284ZM10.0103 14.8242H11.3326V12.8242H10.0103V14.8242ZM10.3326 13.8242V19.0149H12.3326V13.8242H10.3326ZM11.0103 20.1597V13.8242H9.01027V20.1597H11.0103ZM10.6542 22.4996C10.6516 22.4996 10.6695 22.4997 10.6964 22.511C10.7233 22.5223 10.7359 22.535 10.7341 22.5332L9.30418 23.9315C9.66729 24.3028 10.1372 24.4996 10.6542 24.4996V22.4996ZM10.7302 22.5292C10.7278 22.5268 10.7297 22.5283 10.7336 22.5341C10.7376 22.5401 10.7423 22.5485 10.7466 22.5588C10.7508 22.5691 10.7534 22.5785 10.7548 22.5857C10.7561 22.5928 10.7559 22.5954 10.7559 22.5924H8.75586C8.75586 23.1043 8.94757 23.5709 9.30809 23.9355L10.7302 22.5292ZM10.7559 22.5924C10.7559 22.5835 10.7573 22.588 10.752 22.6016C10.7463 22.6161 10.7367 22.6312 10.7253 22.6427L9.3031 21.2365C8.92756 21.6163 8.75586 22.1072 8.75586 22.5924H10.7559ZM10.7273 22.6407C10.7274 22.6406 10.7234 22.6446 10.715 22.6503C10.7065 22.6561 10.696 22.662 10.6841 22.6669C10.6581 22.6776 10.6441 22.6763 10.6542 22.6763V20.6763C10.1411 20.6763 9.66824 20.8651 9.30112 21.2385L10.7273 22.6407ZM10.6542 22.6763C10.6457 22.6763 10.6329 22.6754 10.6172 22.6721C10.6014 22.6688 10.586 22.6637 10.5722 22.6575C10.5432 22.6445 10.5361 22.6335 10.548 22.6459L11.989 21.2589C11.6432 20.8997 11.1856 20.6763 10.6542 20.6763V22.6763ZM10.5518 22.6498C10.5578 22.6559 10.5585 22.6577 10.5564 22.6546C10.5542 22.6513 10.5502 22.6446 10.5462 22.635C10.5421 22.6253 10.5392 22.6154 10.5375 22.6064C10.5366 22.6022 10.5362 22.5987 10.536 22.5962C10.5357 22.5936 10.5357 22.5923 10.5357 22.5924H12.5357C12.5357 22.0748 12.3357 21.6152 11.9852 21.255L10.5518 22.6498ZM10.5357 22.5924C10.5357 22.5924 10.5357 22.591 10.536 22.5883C10.5362 22.5856 10.5367 22.5819 10.5376 22.5773C10.5395 22.5677 10.5427 22.5569 10.5471 22.5462C10.5569 22.5229 10.5657 22.5168 10.5556 22.5271L11.9814 23.9297C12.3344 23.5708 12.5357 23.1115 12.5357 22.5924H10.5357ZM10.5556 22.5272C10.5439 22.5391 10.5504 22.5289 10.5777 22.5169C10.5906 22.5112 10.605 22.5065 10.6198 22.5034C10.6345 22.5004 10.6464 22.4996 10.6542 22.4996V24.4996C11.1809 24.4996 11.6357 24.2811 11.9814 23.9296L10.5556 22.5272Z" fill="#CCCCCC" mask="url(#path-3-inside-1_2785_37843)"/>
<path d="M17.3612 19.6597H14.4346V19.5149H16.5368H17.0344L17.0368 19.0174L17.06 14.3242H17.3827L17.3612 19.6597ZM16.9564 22.8778L16.9564 22.8778C16.8654 22.7853 16.8327 22.6975 16.8327 22.5924C16.8327 22.4865 16.866 22.3959 16.9583 22.3011L16.9592 22.3001C17.0539 22.2023 17.1335 22.1763 17.2142 22.1763C17.3393 22.1763 17.4224 22.2136 17.4977 22.2901L17.4987 22.2911C17.572 22.3653 17.6126 22.4538 17.6126 22.5924C17.6126 22.7091 17.5768 22.7968 17.4938 22.8808L17.4937 22.8808L17.4918 22.8828C17.4116 22.9648 17.3285 22.9996 17.2142 22.9996C17.13 22.9996 17.0498 22.9727 16.9564 22.8778Z" fill="white" fill-opacity="0.5" stroke="#CCCCCC"/>
<mask id="path-6-inside-2_2785_37843" fill="white">
<path d="M17.8805 14.969H11.333V13.8242H17.8855"/>
</mask>
<path d="M17.8805 14.969H11.333V13.8242H17.8855" fill="white" fill-opacity="0.5"/>
<path d="M11.333 14.969H10.333V15.969H11.333V14.969ZM11.333 13.8242V12.8242H10.333V13.8242H11.333ZM17.8805 13.969H11.333V15.969H17.8805V13.969ZM12.333 14.969V13.8242H10.333V14.969H12.333ZM11.333 14.8242H17.8855V12.8242H11.333V14.8242Z" fill="#CCCCCC" mask="url(#path-6-inside-2_2785_37843)"/>
<path d="M11.833 13.3255V13.1815L16.0392 13.1799L16.0397 13.3255H11.833Z" fill="white" fill-opacity="0.5" stroke="#CCCCCC"/>
<path d="M11.9788 13.3461H11.8338L11.8322 9.1395L11.9788 9.13887V13.3461Z" fill="white" fill-opacity="0.5" stroke="#CCCCCC"/>
</svg>
