<svg width="34" height="34" viewBox="0 0 34 34" fill="none" xmlns="http://www.w3.org/2000/svg">
<rect x="0.5" y="0.5" width="33" height="33" rx="16.5" stroke="#CCCCCC"/>
<path d="M17.2545 14.8173C18.5874 14.8413 19.7116 15.3273 20.6565 16.2912L20.658 16.2927C21.6334 17.2791 22.1132 18.4517 22.1132 19.8313C22.1132 21.2232 21.6335 22.4863 20.6862 23.4488C19.7323 24.4162 18.5679 24.8975 17.1504 24.8975C15.8908 24.8975 14.7708 24.4048 13.7743 23.374L13.7733 23.3729C12.7744 22.3457 12.29 21.1728 12.29 19.8313C12.29 18.4904 12.7739 17.3289 13.7709 16.3173L13.7714 16.3168C14.7672 15.3038 15.8872 14.8173 17.1504 14.8173H17.2545Z" stroke="#CCCCCC"/>
<mask id="path-3-inside-1_2785_37823" fill="white">
<path d="M17.6435 8.92188H16.7617V11.4219H17.6435V8.92188Z"/>
</mask>
<path d="M16.7617 8.92188V7.92188H15.7617V8.92188H16.7617ZM17.6435 8.92188H18.6435V7.92188H17.6435V8.92188ZM17.6435 11.4219V12.4219H18.6435V11.4219H17.6435ZM16.7617 11.4219H15.7617V12.4219H16.7617V11.4219ZM16.7617 9.92188H17.6435V7.92188H16.7617V9.92188ZM16.6435 8.92188V11.4219H18.6435V8.92188H16.6435ZM17.6435 10.4219H16.7617V12.4219H17.6435V10.4219ZM17.7617 11.4219V8.92188H15.7617V11.4219H17.7617Z" fill="#CCCCCC" mask="url(#path-3-inside-1_2785_37823)"/>
<mask id="path-5-inside-2_2785_37823" fill="white">
<path d="M24.864 11.5706L22.6143 13.8203L23.2378 14.4438L25.4875 12.1941L24.864 11.5706Z"/>
</mask>
<path d="M22.6143 13.8203L21.9072 13.1132L21.2 13.8203L21.9072 14.5274L22.6143 13.8203ZM24.864 11.5706L25.5711 10.8635L24.864 10.1564L24.1569 10.8635L24.864 11.5706ZM25.4875 12.1941L26.1946 12.9012L26.9017 12.1941L26.1946 11.487L25.4875 12.1941ZM23.2378 14.4438L22.5306 15.1509L23.2378 15.858L23.9449 15.1509L23.2378 14.4438ZM23.3214 14.5274L25.5711 12.2777L24.1569 10.8635L21.9072 13.1132L23.3214 14.5274ZM24.1569 12.2777L24.7804 12.9012L26.1946 11.487L25.5711 10.8635L24.1569 12.2777ZM24.7804 11.487L22.5306 13.7367L23.9449 15.1509L26.1946 12.9012L24.7804 11.487ZM23.9449 13.7367L23.3214 13.1132L21.9072 14.5274L22.5306 15.1509L23.9449 13.7367Z" fill="#CCCCCC" mask="url(#path-5-inside-2_2785_37823)"/>
<mask id="path-7-inside-3_2785_37823" fill="white">
<path d="M9.54146 11.5718L8.91797 12.1953L11.1677 14.445L11.7912 13.8215L9.54146 11.5718Z"/>
</mask>
<path d="M8.91797 12.1953L8.21086 11.4882L7.50376 12.1953L8.21086 12.9024L8.91797 12.1953ZM9.54146 11.5718L10.2486 10.8647L9.54146 10.1576L8.83436 10.8647L9.54146 11.5718ZM11.7912 13.8215L12.4983 14.5286L13.2054 13.8215L12.4983 13.1144L11.7912 13.8215ZM11.1677 14.445L10.4606 15.1521L11.1677 15.8592L11.8748 15.1521L11.1677 14.445ZM9.62508 12.9024L10.2486 12.2789L8.83436 10.8647L8.21086 11.4882L9.62508 12.9024ZM8.83436 12.2789L11.0841 14.5286L12.4983 13.1144L10.2486 10.8647L8.83436 12.2789ZM11.0841 13.1144L10.4606 13.7379L11.8748 15.1521L12.4983 14.5286L11.0841 13.1144ZM11.8748 13.7379L9.62508 11.4882L8.21086 12.9024L10.4606 15.1521L11.8748 13.7379Z" fill="#CCCCCC" mask="url(#path-7-inside-3_2785_37823)"/>
</svg>
