<svg width="100" height="100" viewBox="0 0 100 100" fill="none" xmlns="http://www.w3.org/2000/svg">
<rect width="100" height="100" rx="50" fill="#F3D5A3"/>
<path d="M51.7702 18.9922H49.1284V29.5594H51.7702V18.9922Z" fill="white" fill-opacity="0.75"/>
<path fill-rule="evenodd" clip-rule="evenodd" d="M51.7702 18.9922V29.5594H49.1284V18.9922H51.7702Z" fill="white" fill-opacity="0.75"/>
<path d="M26.3392 29.4523L24.4712 31.3203L31.9433 38.7924L33.8113 36.9244L26.3392 29.4523Z" fill="white" fill-opacity="0.75"/>
<path fill-rule="evenodd" clip-rule="evenodd" d="M26.3392 29.4523L33.8113 36.9244L31.9433 38.7924L24.4712 31.3203L26.3392 29.4523Z" fill="white" fill-opacity="0.75"/>
<path d="M75.6532 30.5477L73.7852 28.6797L66.313 36.1518L68.1811 38.0198L75.6532 30.5477Z" fill="white" fill-opacity="0.75"/>
<path fill-rule="evenodd" clip-rule="evenodd" d="M75.6532 30.5477L68.1811 38.0198L66.313 36.1518L73.7852 28.6797L75.6532 30.5477Z" fill="white" fill-opacity="0.75"/>
<path fill-rule="evenodd" clip-rule="evenodd" d="M63.7844 44.9234C60.0642 41.1305 55.5623 39.2422 50.2688 39.2422V39.2454C45.3336 39.2454 40.9783 41.1696 37.1995 45.0113C33.4045 48.8596 31.5151 53.3557 31.5151 58.5258C31.5151 63.5099 33.271 67.901 36.7975 71.7049V50.6911H40.8215L50.2836 66.1703H50.6098L60.0719 50.6911H64.096V72.1844C67.6202 68.4918 69.3808 63.7076 69.3808 58.5258C69.3808 53.2418 67.5208 48.7 63.7844 44.9234ZM60.942 74.8643V55.1709H60.6701L51.9693 69.339H48.9241L40.2234 55.1709H39.9515V74.5529C43.0525 76.8433 46.4926 77.9885 50.2688 77.9885C54.3159 77.9885 57.869 76.9484 60.942 74.8643Z" fill="white" fill-opacity="0.75"/>
</svg>
