<svg width="78" height="78" viewBox="0 0 78 78" fill="none" xmlns="http://www.w3.org/2000/svg">
<g filter="url(#filter0_d_3385_23998)">
<rect x="11.4473" y="20.3594" width="55.6028" height="14.3972" rx="7.19858" fill="#F6F6F6"/>
<rect x="11.4473" y="4.96875" width="55.6028" height="14.3972" rx="7.19858" fill="#F6F6F6"/>
<rect x="11.4473" y="35.75" width="55.6028" height="14.3972" rx="7.19858" fill="#F6F6F6"/>
<rect x="11.4473" y="51.1406" width="55.6028" height="14.3972" rx="7.19858" fill="#F6F6F6"/>
<rect x="11.4473" y="20.3594" width="55.6028" height="14.3972" rx="7.19858" fill="#6878CA" fill-opacity="0.5"/>
<rect x="11.4473" y="4.96875" width="55.6028" height="14.3972" rx="7.19858" fill="#F1684C" fill-opacity="0.5"/>
<rect x="11.4473" y="35.75" width="55.6028" height="14.3972" rx="7.19858" fill="#EFB351" fill-opacity="0.5"/>
<rect x="11.4473" y="51.1406" width="55.6028" height="14.3972" rx="7.19858" fill="#54BF94" fill-opacity="0.5"/>
<path d="M71.5 35C71.5 52.9493 56.9493 67.5 39 67.5C21.0507 67.5 6.5 52.9493 6.5 35C6.5 17.0507 21.0507 2.5 39 2.5C56.9493 2.5 71.5 17.0507 71.5 35Z" stroke="#F6F6F6" stroke-width="5"/>
</g>
<defs>
<filter id="filter0_d_3385_23998" x="0" y="0" width="78" height="78" filterUnits="userSpaceOnUse" color-interpolation-filters="sRGB">
<feFlood flood-opacity="0" result="BackgroundImageFix"/>
<feColorMatrix in="SourceAlpha" type="matrix" values="0 0 0 0 0 0 0 0 0 0 0 0 0 0 0 0 0 0 127 0" result="hardAlpha"/>
<feOffset dy="4"/>
<feGaussianBlur stdDeviation="2"/>
<feComposite in2="hardAlpha" operator="out"/>
<feColorMatrix type="matrix" values="0 0 0 0 0 0 0 0 0 0 0 0 0 0 0 0 0 0 0.25 0"/>
<feBlend mode="normal" in2="BackgroundImageFix" result="effect1_dropShadow_3385_23998"/>
<feBlend mode="normal" in="SourceGraphic" in2="effect1_dropShadow_3385_23998" result="shape"/>
</filter>
</defs>
</svg>
