<svg width="70" height="70" viewBox="0 0 70 70" fill="none" xmlns="http://www.w3.org/2000/svg">
<rect x="2.97949" y="37.7266" width="18.5043" height="18.617" rx="9.25215" transform="rotate(-90 2.97949 37.7266)" fill="#F6F6F6"/>
<rect x="19.1143" y="37.7266" width="18.617" height="18.617" rx="9.30851" transform="rotate(-90 19.1143 37.7266)" fill="#F6F6F6"/>
<rect x="2.97949" y="21.5938" width="18.617" height="18.617" rx="9.30851" transform="rotate(-90 2.97949 21.5938)" fill="#F6F6F6"/>
<rect x="19.1143" y="21.5938" width="18.617" height="18.617" rx="9.30851" transform="rotate(-90 19.1143 21.5938)" fill="#F6F6F6"/>
<rect x="2.97949" y="69.5" width="18.5043" height="18.617" rx="9.25215" transform="rotate(-90 2.97949 69.5)" fill="#F6F6F6"/>
<rect x="19.1143" y="69.5" width="18.617" height="18.617" rx="9.30851" transform="rotate(-90 19.1143 69.5)" fill="#F6F6F6"/>
<rect x="2.97949" y="53.3672" width="18.617" height="18.617" rx="9.30851" transform="rotate(-90 2.97949 53.3672)" fill="#F6F6F6"/>
<rect x="19.1143" y="53.3672" width="18.617" height="18.617" rx="9.30851" transform="rotate(-90 19.1143 53.3672)" fill="#F6F6F6"/>
<rect x="34.752" y="37.7266" width="18.5043" height="18.617" rx="9.25215" transform="rotate(-90 34.752 37.7266)" fill="#F6F6F6"/>
<rect x="50.8867" y="37.7266" width="18.617" height="18.617" rx="9.30851" transform="rotate(-90 50.8867 37.7266)" fill="#F6F6F6"/>
<rect x="34.752" y="21.5938" width="18.617" height="18.617" rx="9.30851" transform="rotate(-90 34.752 21.5938)" fill="#F6F6F6"/>
<rect x="50.8867" y="21.5938" width="18.617" height="18.617" rx="9.30851" transform="rotate(-90 50.8867 21.5938)" fill="#F6F6F6"/>
<rect x="34.752" y="69.5" width="18.5043" height="18.617" rx="9.25215" transform="rotate(-90 34.752 69.5)" fill="#F6F6F6"/>
<rect x="50.8867" y="69.5" width="18.617" height="18.617" rx="9.30851" transform="rotate(-90 50.8867 69.5)" fill="#F6F6F6"/>
<rect x="34.752" y="53.3672" width="18.617" height="18.617" rx="9.30851" transform="rotate(-90 34.752 53.3672)" fill="#F6F6F6"/>
<rect x="50.8867" y="53.3672" width="18.617" height="18.617" rx="9.30851" transform="rotate(-90 50.8867 53.3672)" fill="#F6F6F6"/>
<rect x="2.97852" y="37.7266" width="18.5043" height="18.617" rx="9.25215" transform="rotate(-90 2.97852 37.7266)" fill="#EFB351" fill-opacity="0.5"/>
<rect x="19.1133" y="37.7266" width="18.617" height="18.617" rx="9.30851" transform="rotate(-90 19.1133 37.7266)" fill="#54BF94" fill-opacity="0.5"/>
<rect x="2.97852" y="21.5938" width="18.617" height="18.617" rx="9.30851" transform="rotate(-90 2.97852 21.5938)" fill="#F1684C" fill-opacity="0.5"/>
<rect x="19.1133" y="21.5938" width="18.617" height="18.617" rx="9.30851" transform="rotate(-90 19.1133 21.5938)" fill="#6878CA" fill-opacity="0.5"/>
<rect x="2.97852" y="69.5" width="18.5043" height="18.617" rx="9.25215" transform="rotate(-90 2.97852 69.5)" fill="#EFB351" fill-opacity="0.5"/>
<rect x="19.1133" y="69.5" width="18.617" height="18.617" rx="9.30851" transform="rotate(-90 19.1133 69.5)" fill="#54BF94" fill-opacity="0.5"/>
<rect x="2.97852" y="53.3672" width="18.617" height="18.617" rx="9.30851" transform="rotate(-90 2.97852 53.3672)" fill="#F1684C" fill-opacity="0.5"/>
<rect x="19.1133" y="53.3672" width="18.617" height="18.617" rx="9.30851" transform="rotate(-90 19.1133 53.3672)" fill="#6878CA" fill-opacity="0.5"/>
<rect x="34.751" y="37.7266" width="18.5043" height="18.617" rx="9.25215" transform="rotate(-90 34.751 37.7266)" fill="#EFB351" fill-opacity="0.5"/>
<rect x="50.8857" y="37.7266" width="18.617" height="18.617" rx="9.30851" transform="rotate(-90 50.8857 37.7266)" fill="#54BF94" fill-opacity="0.5"/>
<rect x="34.751" y="21.5938" width="18.617" height="18.617" rx="9.30851" transform="rotate(-90 34.751 21.5938)" fill="#F1684C" fill-opacity="0.5"/>
<rect x="50.8857" y="21.5938" width="18.617" height="18.617" rx="9.30851" transform="rotate(-90 50.8857 21.5938)" fill="#6878CA" fill-opacity="0.5"/>
<rect x="34.751" y="69.5" width="18.5043" height="18.617" rx="9.25215" transform="rotate(-90 34.751 69.5)" fill="#EFB351" fill-opacity="0.5"/>
<rect x="50.8857" y="69.5" width="18.617" height="18.617" rx="9.30851" transform="rotate(-90 50.8857 69.5)" fill="#54BF94" fill-opacity="0.5"/>
<rect x="34.751" y="53.3672" width="18.617" height="18.617" rx="9.30851" transform="rotate(-90 34.751 53.3672)" fill="#F1684C" fill-opacity="0.5"/>
<rect x="50.8857" y="53.3672" width="18.617" height="18.617" rx="9.30851" transform="rotate(-90 50.8857 53.3672)" fill="#6878CA" fill-opacity="0.5"/>
<circle cx="35" cy="35" r="32.5" stroke="#F6F6F6" stroke-width="5"/>
</svg>
