<svg width="71" height="71" viewBox="0 0 71 71" fill="none" xmlns="http://www.w3.org/2000/svg">
<circle cx="46" cy="9" r="5" fill="#EAA698"/>
<circle cx="6" cy="9" r="5" fill="#A6AED7"/>
<circle cx="26" cy="9" r="5" fill="#EACC9A"/>
<circle cx="66" cy="9" r="5" fill="#9CD1BC"/>
<circle cx="46" cy="22" r="5" fill="#EAA698"/>
<circle cx="46" cy="35" r="5" fill="#EAA698"/>
<circle cx="46" cy="48" r="5" fill="#EAA698"/>
<circle cx="46" cy="61" r="5" fill="#EAA698"/>
<circle cx="6" cy="22" r="5" fill="#A6AED7"/>
<circle cx="6" cy="35" r="5" fill="#A6AED7"/>
<circle cx="6" cy="48" r="5" fill="#A6AED7"/>
<circle cx="6" cy="61" r="5" fill="#A6AED7"/>
<circle cx="26" cy="22" r="5" fill="#EACC9A"/>
<circle cx="26" cy="35" r="5" fill="#EACC9A"/>
<circle cx="26" cy="48" r="5" fill="#EACC9A"/>
<circle cx="26" cy="61" r="5" fill="#EACC9A"/>
<circle cx="66" cy="22" r="5" fill="#9CD1BC"/>
<circle cx="66" cy="35" r="5" fill="#9CD1BC"/>
<circle cx="66" cy="48" r="5" fill="#9CD1BC"/>
<circle cx="66" cy="61" r="5" fill="#9CD1BC"/>
<circle cx="35.9102" cy="35.2578" r="32.5" stroke="#F6F6F6" stroke-width="5"/>
</svg>
