<svg width="198" height="198" viewBox="0 0 198 198" fill="none" xmlns="http://www.w3.org/2000/svg">
<path fill-rule="evenodd" clip-rule="evenodd" d="M99.2026 179.699C143.704 179.699 179.779 143.624 179.779 99.1226C179.779 54.6216 143.704 18.5464 99.2026 18.5464C54.7017 18.5464 18.6265 54.6216 18.6265 99.1226C18.6265 143.624 54.7017 179.699 99.2026 179.699ZM99.2026 197.604C153.593 197.604 197.685 153.513 197.685 99.1226C197.685 44.7325 153.593 0.640625 99.2026 0.640625C44.8126 0.640625 0.720703 44.7325 0.720703 99.1226C0.720703 153.513 44.8126 197.604 99.2026 197.604Z" fill="white"/>
<path fill-rule="evenodd" clip-rule="evenodd" d="M131.785 163.232C141.317 147.346 147.561 124.705 147.561 99.1226C147.561 73.5399 141.317 50.8993 131.785 35.0128C122.125 18.9124 110.276 11.3841 99.2151 11.3841C88.1545 11.3841 76.3055 18.9124 66.6452 35.0128C57.1133 50.8993 50.8695 73.5399 50.8695 99.1226C50.8695 124.705 57.1133 147.346 66.6452 163.232C76.3055 179.333 88.1545 186.861 99.2151 186.861C110.276 186.861 122.125 179.333 131.785 163.232ZM99.2151 197.604C131.849 197.604 158.304 153.513 158.304 99.1226C158.304 44.7325 131.849 0.640625 99.2151 0.640625C66.5811 0.640625 40.126 44.7325 40.126 99.1226C40.126 153.513 66.5811 197.604 99.2151 197.604Z" fill="white"/>
<path fill-rule="evenodd" clip-rule="evenodd" d="M107.825 165.933C112.369 149.27 115.313 125.645 115.313 99.1226C115.313 72.6002 112.369 48.9751 107.825 32.3121C105.531 23.9036 102.992 17.8757 100.623 14.2018C100.059 13.3272 99.5815 12.6959 99.1976 12.2443C98.8136 12.6959 98.3361 13.3272 97.7722 14.2018C95.4033 17.8757 92.8637 23.9036 90.5705 32.3121C86.0261 48.9751 83.0824 72.6002 83.0824 99.1226C83.0824 125.645 86.0261 149.27 90.5705 165.933C92.8637 174.341 95.4033 180.369 97.7722 184.043C98.3361 184.918 98.8136 185.549 99.1976 186.001C99.5815 185.549 100.059 184.918 100.623 184.043C102.992 180.369 105.531 174.341 107.825 165.933ZM98.0706 187.066C98.0705 187.065 98.0836 187.057 98.1101 187.045C98.084 187.061 98.0707 187.067 98.0706 187.066ZM100.285 187.045C100.312 187.057 100.325 187.065 100.325 187.066C100.324 187.067 100.311 187.061 100.285 187.045ZM100.325 11.1792C100.325 11.1801 100.312 11.1881 100.285 11.2006C100.311 11.1845 100.324 11.1783 100.325 11.1792ZM98.1102 11.2006C98.0836 11.1881 98.0705 11.1801 98.0706 11.1792C98.0707 11.1783 98.084 11.1845 98.1102 11.2006ZM99.1976 197.604C114.031 197.604 126.056 153.513 126.056 99.1226C126.056 44.7325 114.031 0.640625 99.1976 0.640625C84.3639 0.640625 72.3389 44.7325 72.3389 99.1226C72.3389 153.513 84.3639 197.604 99.1976 197.604Z" fill="white"/>
<path fill-rule="evenodd" clip-rule="evenodd" d="M35.0929 131.69C50.9794 141.222 73.62 147.466 99.2026 147.466C124.785 147.466 147.426 141.222 163.312 131.69C179.413 122.03 186.941 110.181 186.941 99.1204C186.941 88.0597 179.413 76.2108 163.312 66.5505C147.426 57.0186 124.785 50.7747 99.2026 50.7747C73.62 50.7747 50.9794 57.0186 35.0929 66.5505C18.9925 76.2108 11.4642 88.0597 11.4642 99.1204C11.4642 110.181 18.9925 122.03 35.0929 131.69ZM0.720698 99.1204C0.720697 131.754 44.8126 158.21 99.2026 158.21C153.593 158.21 197.685 131.754 197.685 99.1204C197.685 66.4864 153.593 40.0312 99.2026 40.0312C44.8126 40.0312 0.7207 66.4864 0.720698 99.1204Z" fill="white"/>
<path fill-rule="evenodd" clip-rule="evenodd" d="M32.3922 107.728C49.0552 112.272 72.6803 115.216 99.2026 115.216C125.725 115.216 149.35 112.272 166.013 107.728C174.422 105.435 180.45 102.895 184.123 100.526C184.998 99.9623 185.629 99.4848 186.081 99.1009C185.629 98.7169 184.998 98.2395 184.123 97.6755C180.45 95.3066 174.422 92.7671 166.013 90.4738C149.35 85.9294 125.725 82.9857 99.2026 82.9857C72.6803 82.9857 49.0552 85.9294 32.3922 90.4738C23.9837 92.7671 17.9558 95.3066 14.2819 97.6755C13.4073 98.2394 12.776 98.7169 12.3244 99.1009C12.776 99.4848 13.4073 99.9623 14.2819 100.526C17.9558 102.895 23.9837 105.435 32.3922 107.728ZM11.2593 97.974C11.2602 97.9739 11.2682 97.9869 11.2806 98.0134C11.2645 97.9873 11.2583 97.9741 11.2593 97.974ZM11.2806 100.188C11.2682 100.215 11.2602 100.228 11.2593 100.228C11.2583 100.228 11.2645 100.214 11.2806 100.188ZM187.146 100.228C187.145 100.228 187.137 100.215 187.125 100.188C187.141 100.214 187.147 100.228 187.146 100.228ZM187.125 98.0136C187.137 97.987 187.145 97.9739 187.146 97.974C187.147 97.9741 187.141 97.9874 187.125 98.0136ZM0.7207 99.1009C0.720699 113.935 44.8126 125.96 99.2026 125.96C153.593 125.96 197.685 113.935 197.685 99.1009C197.685 84.2672 153.593 72.2422 99.2026 72.2422C44.8126 72.2422 0.7207 84.2672 0.7207 99.1009Z" fill="white"/>
</svg>
