<svg width="70" height="85" viewBox="0 0 70 85" fill="none" xmlns="http://www.w3.org/2000/svg">
<path fill-rule="evenodd" clip-rule="evenodd" d="M58.112 25.2776C59.9559 22.8757 61 20.1372 61 17.2307C61 7.71444 49.8071 0 36 0C22.1929 0 11 7.71444 11 17.2307C11 20.1372 12.0441 22.8757 13.888 25.2776C12.0441 27.6795 11 30.4179 11 33.3244C11 36.702 12.41 39.8527 14.8465 42.5119C12.41 45.1712 11 48.3218 11 51.6994C11 54.6012 12.0408 57.3355 13.879 59.7346C12.0408 62.1337 11 64.868 11 67.7698C11 77.286 22.1929 85.0004 36 85.0004C49.8071 85.0004 61 77.286 61 67.7698C61 64.868 59.9592 62.1337 58.121 59.7346C59.9592 57.3355 61 54.6012 61 51.6994C61 48.3218 59.59 45.1712 57.1535 42.5119C59.59 39.8527 61 36.702 61 33.3244C61 30.4179 59.9559 27.6795 58.112 25.2776Z" fill="white"/>
<ellipse opacity="0.8" cx="36" cy="17.2307" rx="25" ry="17.2307" fill="white"/>
<ellipse opacity="0.8" cx="36" cy="33.3244" rx="25" ry="17.2307" fill="white"/>
<ellipse opacity="0.8" cx="36" cy="51.6994" rx="25" ry="17.2307" fill="white"/>
<ellipse opacity="0.8" cx="36" cy="67.7698" rx="25" ry="17.2307" fill="white"/>
<path fill-rule="evenodd" clip-rule="evenodd" d="M58.112 25.2776C59.9559 22.8757 61 20.1372 61 17.2307C61 7.71444 49.8071 0 36 0C22.1929 0 11 7.71444 11 17.2307C11 20.1372 12.0441 22.8757 13.888 25.2776C12.0441 27.6795 11 30.4179 11 33.3244C11 36.702 12.41 39.8527 14.8465 42.5119C12.41 45.1712 11 48.3218 11 51.6994C11 54.6012 12.0408 57.3355 13.879 59.7346C12.0408 62.1337 11 64.868 11 67.7698C11 77.286 22.1929 85.0004 36 85.0004C49.8071 85.0004 61 77.286 61 67.7698C61 64.868 59.9592 62.1337 58.121 59.7346C59.9592 57.3355 61 54.6012 61 51.6994C61 48.3218 59.59 45.1712 57.1535 42.5119C59.59 39.8527 61 36.702 61 33.3244C61 30.4179 59.9559 27.6795 58.112 25.2776Z" fill="white"/>
<ellipse opacity="0.8" cx="36" cy="17.2307" rx="25" ry="17.2307" fill="#F8B3A5"/>
<ellipse opacity="0.8" cx="36" cy="33.3244" rx="25" ry="17.2307" fill="#AFB7E0"/>
<ellipse opacity="0.8" cx="36" cy="51.6994" rx="25" ry="17.2307" fill="#F3D5A3"/>
<ellipse opacity="0.8" cx="36" cy="67.7698" rx="25" ry="17.2307" fill="#9CD1BC"/>
<path d="M67.5 42C67.5 59.9493 52.9493 74.5 35 74.5C17.0507 74.5 2.5 59.9493 2.5 42C2.5 24.0507 17.0507 9.5 35 9.5C52.9493 9.5 67.5 24.0507 67.5 42Z" stroke="#F6F6F6" stroke-width="5"/>
</svg>
