<svg width="210" height="170" viewBox="0 0 210 170" fill="none" xmlns="http://www.w3.org/2000/svg">
<path d="M188.595 169.617H184.807L193.32 145.961H197.443L205.956 169.617H202.168L195.48 150.258H195.295L188.595 169.617ZM189.231 160.353H201.521V163.357H189.231V160.353Z" fill="white"/>
<path d="M139.724 152.171C139.601 151.077 139.092 150.23 138.199 149.629C137.306 149.021 136.181 148.717 134.826 148.717C133.856 148.717 133.017 148.871 132.308 149.179C131.6 149.479 131.049 149.895 130.656 150.426C130.271 150.95 130.079 151.547 130.079 152.217C130.079 152.779 130.21 153.264 130.471 153.672C130.741 154.08 131.091 154.423 131.523 154.7C131.962 154.97 132.431 155.197 132.932 155.382C133.432 155.559 133.914 155.705 134.376 155.821L136.686 156.421C137.441 156.606 138.214 156.856 139.008 157.172C139.801 157.488 140.536 157.904 141.214 158.42C141.891 158.936 142.438 159.575 142.854 160.337C143.278 161.1 143.489 162.012 143.489 163.075C143.489 164.415 143.143 165.604 142.45 166.644C141.764 167.684 140.767 168.504 139.458 169.104C138.157 169.705 136.582 170.005 134.734 170.005C132.963 170.005 131.43 169.724 130.136 169.162C128.843 168.6 127.83 167.803 127.099 166.771C126.367 165.731 125.963 164.499 125.886 163.075H129.467C129.536 163.929 129.813 164.642 130.298 165.212C130.791 165.774 131.419 166.193 132.181 166.471C132.951 166.74 133.794 166.875 134.711 166.875C135.719 166.875 136.617 166.717 137.402 166.401C138.195 166.078 138.819 165.631 139.273 165.061C139.728 164.484 139.955 163.81 139.955 163.04C139.955 162.339 139.755 161.766 139.354 161.319C138.961 160.872 138.426 160.503 137.749 160.21C137.079 159.917 136.32 159.659 135.473 159.436L132.678 158.674C130.783 158.158 129.282 157.399 128.173 156.398C127.072 155.397 126.521 154.073 126.521 152.425C126.521 151.062 126.891 149.872 127.63 148.856C128.369 147.839 129.37 147.05 130.633 146.488C131.896 145.918 133.321 145.633 134.907 145.633C136.509 145.633 137.922 145.914 139.146 146.476C140.378 147.038 141.349 147.812 142.057 148.798C142.766 149.776 143.135 150.9 143.166 152.171H139.724Z" fill="white"/>
<path d="M68.1895 169.617V145.961H83.0209V149.033H71.7587V156.241H82.2469V159.302H71.7587V166.545H83.1595V169.617H68.1895Z" fill="white"/>
<path d="M6.80273 149.033V145.961H25.111V149.033H17.7299V169.617H14.1722V149.033H6.80273Z" fill="white"/>
<path fill-rule="evenodd" clip-rule="evenodd" d="M133.858 19.0859L189.192 90.1129L183.693 94.3965L133.515 29.9864L77.9832 92.6829L22.6289 26.7776L27.9662 22.2948L78.1234 82.0122L133.858 19.0859Z" fill="white"/>
<path d="M48.3172 28.4654C48.3172 42.0161 37.581 53.0011 24.3373 53.0011C11.0936 53.0011 0.357422 42.0161 0.357422 28.4654C0.357422 14.9147 11.0936 3.92969 24.3373 3.92969C37.581 3.92969 48.3172 14.9147 48.3172 28.4654Z" fill="#EAA698"/>
<path d="M102.031 89.3091C102.031 102.86 91.2949 113.845 78.0512 113.845C64.8074 113.845 54.0713 102.86 54.0713 89.3091C54.0713 75.7584 64.8074 64.7734 78.0512 64.7734C91.2949 64.7734 102.031 75.7584 102.031 89.3091Z" fill="#A6AED7"/>
<path d="M155.747 24.5357C155.747 38.0864 145.011 49.0714 131.767 49.0714C118.523 49.0714 107.787 38.0864 107.787 24.5357C107.787 10.985 118.523 0 131.767 0C145.011 0 155.747 10.985 155.747 24.5357Z" fill="#EACC9A"/>
<path d="M209.462 89.3091C209.462 102.86 198.726 113.845 185.482 113.845C172.238 113.845 161.502 102.86 161.502 89.3091C161.502 75.7584 172.238 64.7734 185.482 64.7734C198.726 64.7734 209.462 75.7584 209.462 89.3091Z" fill="#9CD1BC"/>
</svg>
