<svg width="91" height="80" viewBox="0 0 91 80" fill="none" xmlns="http://www.w3.org/2000/svg">
<path d="M3.72361 64.1406V62.8182H11.6036V64.1406H8.42673V73H6.89548V64.1406H3.72361ZM30.1449 73V62.8182H36.5284V64.1406H31.6811V67.2429H36.1953V68.5604H31.6811V71.6776H36.5881V73H30.1449ZM60.9337 65.4929C60.8807 65.0223 60.6619 64.6577 60.2774 64.3991C59.893 64.1373 59.4091 64.0064 58.8257 64.0064C58.4081 64.0064 58.0469 64.0727 57.7419 64.2053C57.437 64.3345 57.2 64.5135 57.031 64.7422C56.8653 64.9676 56.7824 65.2244 56.7824 65.5128C56.7824 65.7547 56.8388 65.9635 56.9514 66.1392C57.0675 66.3149 57.2183 66.4624 57.4039 66.5817C57.5928 66.6977 57.795 66.7955 58.0104 66.875C58.2258 66.9512 58.433 67.0142 58.6318 67.0639L59.6262 67.3224C59.951 67.402 60.2841 67.5097 60.6255 67.6456C60.9668 67.7815 61.2834 67.9605 61.575 68.1825C61.8667 68.4046 62.102 68.6797 62.281 69.0078C62.4633 69.3359 62.5544 69.7287 62.5544 70.1861C62.5544 70.7628 62.4053 71.2749 62.107 71.7223C61.812 72.1697 61.3828 72.5227 60.8193 72.7812C60.2592 73.0398 59.5814 73.169 58.786 73.169C58.0237 73.169 57.3641 73.0481 56.8073 72.8061C56.2505 72.5642 55.8146 72.2211 55.4997 71.777C55.1849 71.3295 55.0109 70.7992 54.9777 70.1861H56.5189C56.5487 70.554 56.6681 70.8606 56.8769 71.1058C57.089 71.3478 57.3591 71.5284 57.6872 71.6477C58.0187 71.7637 58.3816 71.8217 58.776 71.8217C59.2102 71.8217 59.5963 71.7538 59.9344 71.6179C60.2758 71.4787 60.5443 71.2865 60.7398 71.0412C60.9354 70.7926 61.0331 70.5026 61.0331 70.1712C61.0331 69.8696 60.947 69.6226 60.7746 69.4304C60.6056 69.2382 60.3752 69.0791 60.0836 68.9531C59.7952 68.8272 59.4687 68.7161 59.1041 68.62L57.901 68.2919C57.0857 68.0698 56.4394 67.7434 55.9621 67.3125C55.4881 66.8816 55.2512 66.3116 55.2512 65.6023C55.2512 65.0156 55.4103 64.5036 55.7284 64.0661C56.0466 63.6286 56.4775 63.2888 57.0211 63.0469C57.5646 62.8016 58.1778 62.679 58.8605 62.679C59.5499 62.679 60.1581 62.8 60.6851 63.0419C61.2154 63.2839 61.633 63.617 61.938 64.0412C62.2429 64.4621 62.402 64.946 62.4152 65.4929H60.9337ZM81.9682 73H80.3376L84.0016 62.8182H85.7765L89.4405 73H87.8099L84.9313 64.6676H84.8518L81.9682 73ZM82.2417 69.0128H87.5315V70.3054H82.2417V69.0128Z" fill="white"/>
<ellipse cx="11.2708" cy="12.2517" rx="10.3211" ry="10.5603" fill="#EAA698"/>
<ellipse cx="34.3899" cy="38.4392" rx="10.3211" ry="10.5603" fill="#A6AED7"/>
<ellipse cx="57.5091" cy="10.5603" rx="10.3211" ry="10.5603" fill="#EACC9A"/>
<ellipse cx="80.6287" cy="38.4392" rx="10.3211" ry="10.5603" fill="#9CD1BC"/>
<path d="M11.6836 10.5625L34.39 37.5969L58.3349 10.5625L81.0413 39.709" stroke="white" stroke-width="3"/>
</svg>
