<svg width="32" height="32" viewBox="0 0 32 32" fill="none" xmlns="http://www.w3.org/2000/svg">
<rect x="0.5" y="0.5" width="31" height="31" rx="15.5" stroke="#CCCCCC"/>
<path d="M17.2921 22.8393L17.4316 23.1108H17.7369H20.9879V23.7605H10.6367V12.0273H11.7376L17.2921 22.8393Z" fill="white" fill-opacity="0.5" stroke="#CCCCCC"/>
<path d="M19.5821 12.6756H16.3311V12.026H20.9882V23.7591H20.0821V13.1756V12.6756H19.5821ZM21.1193 7.44618L21.1201 7.44697C21.2811 7.61007 21.3552 7.79179 21.3552 8.01816C21.3552 8.25676 21.275 8.45724 21.1263 8.60878C20.9736 8.76339 20.7965 8.83876 20.5602 8.83876C20.3762 8.83876 20.2071 8.7724 20.0334 8.59347L20.0327 8.59269C19.862 8.41753 19.7898 8.23337 19.7898 8.01927C19.7898 7.80656 19.862 7.62509 20.0312 7.45293L20.032 7.45215C20.2028 7.27756 20.3731 7.21094 20.5591 7.21094C20.7839 7.21094 20.9611 7.28516 21.1193 7.44618Z" fill="white" fill-opacity="0.5" stroke="#CCCCCC"/>
<path d="M11.5798 13.1756V23.7591H10.6736V12.026H15.3308V12.6756H12.0798H11.5798V13.1756ZM11.6306 7.45293L11.6314 7.4537C11.8003 7.62481 11.872 7.80563 11.872 8.01927C11.872 8.23244 11.7994 8.41725 11.6284 8.59347L11.6277 8.59423C11.455 8.77283 11.2865 8.83876 11.1016 8.83876C10.8636 8.83876 10.687 8.76298 10.5359 8.60913L10.5359 8.60913L10.5351 8.60835C10.3852 8.4564 10.3066 8.27098 10.3066 8.01816C10.3066 7.77852 10.3783 7.61257 10.5417 7.44697L10.5425 7.44618C10.7009 7.285 10.8781 7.21094 11.1016 7.21094C11.2884 7.21094 11.458 7.2773 11.6306 7.45293L11.6306 7.45293Z" fill="white" fill-opacity="0.5" stroke="#CCCCCC"/>
</svg>
