<svg width="100" height="100" viewBox="0 0 100 100" fill="none" xmlns="http://www.w3.org/2000/svg">
<rect width="100" height="100" rx="50" fill="#AFB7E0"/>
<path fill-rule="evenodd" clip-rule="evenodd" d="M43.4301 23.0234V31.7802H41.2409V23.0234H43.4301ZM31.7548 39.7876C31.7548 35.3694 35.3365 31.7876 39.7548 31.7876H48.9983V27.0291H51.1875V31.7876H60.2413C64.6596 31.7876 68.2413 35.3694 68.2413 39.7876V49.0161H72.7544V51.2053H68.2413V60.2741C68.2413 64.6924 64.6596 68.2741 60.2413 68.2741H58.7541V77.0217H56.5649V68.2741H51.1875V72.7745H48.9983V68.2741H43.4301V77.0217H41.2409V68.2741H39.7548C35.3365 68.2741 31.7548 64.6924 31.7548 60.2741V58.7763H22.998V56.5871H31.7548V51.2053H26.9975L26.9975 49.0161H31.7548V43.4496H22.998V41.2604H31.7548V39.7876ZM58.7541 23.0234V31.7802H56.5649V23.0234H58.7541ZM68.2413 43.4496H76.9981V41.2604H68.2413V43.4496ZM76.9981 58.7763H68.2413V56.5871H76.9981V58.7763ZM44.9482 58.0199L40.9983 43.0199H42.7758L45.7946 55.2367H45.9356L49.0109 43.0199H50.9858L54.061 55.2367H54.2021L57.2209 43.0199H58.9983L55.0485 58.0199H53.2428L50.0548 46.0668H49.9419L46.7538 58.0199H44.9482ZM41.9997 35.0071H57.9997C61.8657 35.0071 64.9997 38.1411 64.9997 42.0071V58.0071C64.9997 61.8731 61.8657 65.0071 57.9997 65.0071H41.9997C38.1338 65.0071 34.9997 61.8731 34.9997 58.0071V42.0071C34.9997 38.1411 38.1338 35.0071 41.9997 35.0071ZM33.9997 42.0071C33.9997 37.5888 37.5815 34.0071 41.9997 34.0071H57.9997C62.418 34.0071 65.9997 37.5888 65.9997 42.0071V58.0071C65.9997 62.4254 62.418 66.0071 57.9997 66.0071H41.9997C37.5815 66.0071 33.9997 62.4254 33.9997 58.0071V42.0071Z" fill="white" fill-opacity="0.75"/>
</svg>
